<svg width="2010px" height="1865px" viewBox="0 0 2010 1865" version="1.1" xmlns:xlink="http://www.w3.org/1999/xlink" xmlns="http://www.w3.org/2000/svg">
  <defs>
    <linearGradient gradientUnits="objectBoundingBox" x1="0.5" y1="0" x2="0.5" y2="1" id="gradient_1">
      <stop offset="0%" stop-color="#EA5454" />
      <stop offset="100%" stop-color="#FF204E" />
    </linearGradient>
    <linearGradient gradientUnits="objectBoundingBox" x1="0.5" y1="0" x2="0.5" y2="1" id="gradient_2">
      <stop offset="0%" stop-color="#F05454" />
      <stop offset="100%" stop-color="#8F6D52" />
    </linearGradient>
    <linearGradient gradientUnits="objectBoundingBox" x1="0.5" y1="0" x2="0.5" y2="1" id="gradient_3">
      <stop offset="0%" stop-color="#FF204E" />
      <stop offset="100%" stop-color="#EA5454" />
    </linearGradient>
  </defs>
  <g id="avatar" fill-opacity="1" transform="translate(33.5 33.5)">
    <path d="M1943 0L1943 0L1943 1798L0 1798L0 0L1943 0Z" id="avatar" fill="none" stroke="none" />
    <path d="M1609 1798C1701.23 1798 1776 1708.56 1776 1598.22L1776 1231.18C1776 1182.31 1776 1157.88 1780.62 1134.89C1784.71 1114.51 1791.46 1095.02 1800.61 1077.14C1810.94 1056.98 1825.38 1039.7 1854.26 1005.15L1943 899L1854.26 792.848C1825.38 758.297 1810.94 741.016 1800.61 720.858C1791.46 702.978 1784.71 683.494 1780.62 663.108C1776 640.117 1776 615.685 1776 566.821L1776 199.778C1776 89.4435 1701.23 0 1609 0" id="Shape" fill="#D3D3D3" fill-opacity="0" stroke="url(#gradient_1)" stroke-width="67" stroke-linecap="round" stroke-linejoin="round" />
    <g id="Group" transform="translate(334 163)">
      <path d="M7.53879 1472C7.53879 1472 -9.42346 1339.37 7.53879 1261.56C24.5006 1183.75 49.0836 1160.76 49.0836 1160.76C49.0836 1160.76 71.3995 1125.36 108.187 1103.97C144.977 1082.58 106.158 1101.36 178.881 1066.88C251.599 1032.38 247.811 1043.4 302.859 1018.19C357.904 992.966 399.067 966.022 399.067 966.022C399.067 966.022 520.649 1011.23 640.306 1011.23C759.958 1011.23 877.686 966.022 877.686 966.022C877.686 966.022 919.875 992.966 974.63 1018.19C1029.39 1043.4 1096.72 1066.88 1096.72 1066.88C1096.72 1066.88 1130.73 1080.5 1163.46 1103.97C1196.2 1127.44 1227.67 1160.76 1227.67 1160.76C1227.67 1160.76 1256.41 1188.88 1269.28 1261.56C1282.15 1334.23 1269.28 1471.19 1269.28 1471.19L7.53879 1472Z" id="Vector" fill="#232932" fill-rule="evenodd" stroke="#232932" stroke-width="1" />
      <path d="M641.105 795.224C641.105 795.224 591.403 796.971 550.879 770.122C510.362 743.27 479.034 687.818 479.034 687.818C479.034 687.818 457.013 655.94 440.789 615.949C424.559 575.952 414.128 527.847 414.128 527.847C414.128 527.847 408.34 528.135 404.861 525.53C401.385 522.918 400.233 517.416 400.233 517.416L377.044 437.426C377.044 437.426 375.603 414.82 377.044 401.49C378.504 388.159 382.846 384.102 382.846 384.102C382.846 384.102 385.042 381.784 387.074 381.784C389.094 381.784 390.956 384.102 390.956 384.102C390.956 384.102 393.854 401.203 399.067 423.519C404.288 445.831 411.818 473.362 411.818 473.362C411.818 473.362 419.635 410.725 426.878 367.546C434.121 324.365 440.789 300.638 440.789 300.638C440.789 300.638 439.916 304.696 440.789 289.048C441.659 273.398 444.264 238.043 444.264 238.043C444.264 238.043 472.128 271.719 574.061 294.846C675.987 317.969 846.393 337.733 846.393 337.733C846.393 337.733 849.004 336.573 853.352 370.481C857.695 404.388 863.779 473.362 863.779 473.362C863.779 473.362 874.21 438.266 880.002 415.951C885.8 393.635 886.956 384.102 886.956 384.102C886.956 384.102 889.818 381.784 892.426 381.784C895.032 381.784 897.385 384.102 897.385 384.102C897.385 384.102 900.863 389.389 902.022 400.98C903.181 412.569 902.022 430.473 902.022 430.473C902.022 430.473 899.298 442.066 895.533 455.973C891.768 469.888 886.956 486.116 886.956 486.116C886.956 486.116 882.324 509.299 876.525 519.73C870.731 530.165 863.779 527.847 863.779 527.847C863.779 527.847 856.537 566.681 840.601 606.672C824.665 646.665 800.041 687.818 800.041 687.818C800.041 687.818 763.287 743.27 723.556 770.121C683.82 796.971 641.105 795.224 641.105 795.224Z" id="Vector" fill="#F6CABC" fill-rule="evenodd" stroke="#F6CABC" stroke-width="1" />
      <path d="M411.89 471.398L390.956 381.796C390.956 381.796 374.495 222.017 402.539 142.997C430.233 47.3084 475.552 47.9382 475.552 47.9382C475.552 47.9382 546.002 -35.512 723.552 17.7942C885.972 78.2642 891.593 153.427 891.593 153.427C891.593 153.427 903.951 192.764 897.386 272.461C890.822 352.159 885.799 381.796 885.799 381.796L863.779 471.398L847.553 337.743C847.553 337.743 720.244 324.857 589.12 297.163C457.998 269.471 444.26 236.892 444.26 236.892L439.626 300.649L411.89 471.398Z" id="Vector" fill="url(#gradient_2)" fill-rule="evenodd" stroke="url(#gradient_2)" stroke-width="1" />
      <path d="M399.322 963.483C399.322 963.483 434.476 941.913 454.692 892.992C474.908 844.076 480.184 767.798 480.184 767.798C480.184 767.798 563.341 895.894 645.911 918.499C751.836 948.332 810.473 858.213 810.473 858.213C810.473 858.213 822.93 896.692 839.445 923.134C855.956 949.574 876.526 963.983 876.526 963.983C876.526 963.983 755.943 1009.04 636.64 1008.91C517.335 1008.79 399.322 963.483 399.322 963.483Z" id="Vector" fill="#F6CABC" fill-rule="evenodd" stroke="#F6CABC" stroke-width="1" />
      <path d="M479.952 764.745L479.952 692.45C479.952 692.45 532.266 796.59 636.642 795.619C732.73 802.443 800.049 692.45 800.049 692.45C800.049 692.45 795.483 750.176 800.049 795.619C804.116 838.139 810.47 854.736 810.47 854.736C810.47 854.736 751.69 945.676 650.545 917.336C562.559 894.841 479.952 764.745 479.952 764.745Z" id="Vector" fill="#D5B1A5" fill-rule="evenodd" stroke="#D5B1A5" stroke-width="1" />
    </g>
    <path d="M334 1798C241.766 1798 167 1708.56 167 1598.22L167 1231.18C167 1182.31 167 1157.88 162.383 1134.89C158.291 1114.51 151.544 1095.02 142.392 1077.14C132.064 1056.98 117.618 1039.7 88.7357 1005.15L0 899L88.7357 792.848C117.618 758.297 132.064 741.016 142.392 720.858C151.544 702.978 158.291 683.494 162.383 663.108C167 640.117 167 615.685 167 566.821L167 199.778C167 89.444 241.766 0 334 0" id="Shape" fill="#D3D3D3" fill-opacity="0" stroke="url(#gradient_3)" stroke-width="67" stroke-linecap="round" stroke-linejoin="round" />
  </g>
</svg>