<svg width="794.00037px" height="805.81055px" viewBox="0 0 794.00037 805.81055" version="1.1" xmlns:xlink="http://www.w3.org/1999/xlink" xmlns="http://www.w3.org/2000/svg">
  <g id="Vector" fill-opacity="1" transform="translate(18.5 18.5)">
    <path d="M757 0L757 0L757 768.811L0 768.811L0 0L757 0Z" id="Vector" fill="none" stroke="none" />
    <path d="M16.8808 188.696L358 7C358 7 370.343 0 382.343 0C394.343 0 406 7 406 7L744 188.696C744 188.696 757 200.942 757 212.518C757 224.094 744 235 744 235L406 433C406 433 394.343 440.5 382.343 440.5C370.343 440.5 358 433 358 433L17 235C17 235 0.0298434 224.576 3.935e-05 213C-0.0297647 201.424 16.8808 188.696 16.8808 188.696Z" id="Vector" fill="none" fill-rule="evenodd" stroke="#CBCBCB" stroke-width="37" />
    <path d="M73.5 270L12 300C12 300 0 311.451 0 322.451C0 333.451 12 344 12 344L350.501 543.5C350.501 543.5 364 552.5 378 552.5C392 552.5 406.501 543.5 406.501 543.5L744.002 344C744.002 344 757 333.451 757 322.451C757 311.451 744.002 300 744.002 300L689.5 270L406.501 433.5C406.501 433.5 392 441.5 378 441.5C364 441.5 350.501 433.5 350.501 433.5L73.5 270Z" id="Vector" fill="none" fill-rule="evenodd" stroke="#CBCBCB" stroke-width="37" />
    <path d="M67.9705 384L13.5 412.91C13.5 412.91 0 426.546 0 438.046C0 449.546 13.5 458.91 13.5 458.91L350 657.41C350 657.41 364.375 663.91 378 663.91C391.625 663.91 404.5 657.41 404.5 657.41L742.5 458.91C742.5 458.91 757 446.408 757 434.908C757 423.408 742.5 412.91 742.5 412.91L688 384L404.5 550.91C404.5 550.91 392.153 557.91 378.528 557.91C364.903 557.91 350 550.91 350 550.91L67.9705 384Z" id="Vector" fill="none" fill-rule="evenodd" stroke="#CBCBCB" stroke-width="37" />
    <path d="M65.1592 485L12 515.811C12 515.811 0 527.595 0 538.72C0 549.845 12 560.311 12 560.311L349 758.311C349 758.311 363.87 768.811 377.995 768.811C392.12 768.811 405.5 758.311 405.5 758.311L744 560.311C744 560.311 757 548.9 757 537.775C757 526.65 744 515.811 744 515.811L693 485L405.5 651.811C405.5 651.811 392.12 657.811 377.995 657.811C363.87 657.811 349 651.811 349 651.811L65.1592 485Z" id="Vector" fill="none" fill-rule="evenodd" stroke="#CBCBCB" stroke-width="37" />
  </g>
</svg>