<svg width="916px" height="86px" viewBox="0 0 916 86" version="1.1" xmlns:xlink="http://www.w3.org/1999/xlink" xmlns="http://www.w3.org/2000/svg">
  <g id="Vector" fill-opacity="1">
    <path d="M-1774 -3784L-1774 -3784L-1774 -3698L-2690 -3698L-2690 -3784L-1774 -3784Z" id="Vector" fill="none" stroke="none" />
    <path d="M913 6L910 0L916 0L913 6Z" id="Triangle" fill="#232932" fill-rule="evenodd" stroke="none" />
    <path d="M0 83C0 81.3431 1.34315 80 3 80C4.65685 80 6 81.3431 6 83C6 84.6569 4.65685 86 3 86C1.34315 86 0 84.6569 0 83Z" id="Oval" fill="#232932" fill-rule="evenodd" stroke="none" />
    <path d="M3 83.3531L527.103 83.3531C527.103 83.3531 552.93 80.3109 553.091 62.7169C553.365 32.8618 577.603 34.3322 577.603 34.3322L875.35 34.3322C875.35 34.3322 894.674 34.6805 901.929 31.5125C914.159 26.1726 912.95 5 912.95 5" id="Vector" fill="none" fill-rule="evenodd" stroke="#232932" stroke-width="1" />
  </g>
</svg>