<svg width="63px" height="437px" viewBox="0 0 63 437" version="1.1" xmlns:xlink="http://www.w3.org/1999/xlink" xmlns="http://www.w3.org/2000/svg">
  <g id="Vector" fill-opacity="1">
    <path d="M-2627 -3784L-2627 -3784L-2627 -3347L-2690 -3347L-2690 -3784L-2627 -3784Z" id="Vector" fill="none" stroke="none" />
    <path d="M57 434C57 432.343 58.3431 431 60 431C61.6569 431 63 432.343 63 434C63 435.657 61.6569 437 60 437C58.3431 437 57 435.657 57 434Z" id="Oval" fill="#232932" fill-rule="evenodd" stroke="none" />
    <path d="M6 3L0 6L0 0L6 3Z" id="Triangle" fill="#232932" fill-rule="evenodd" stroke="none" />
    <path d="M3 3.09637L3 3.09637L28.9093 3.09637C28.9093 3.09637 59.6592 0.101074 59.9092 27.509C60.1593 54.9169 59.9094 67.5087 59.9094 67.5087L59.9094 433.503L59.9094 433.846L59.9094 434.527L59.9094 435.009" id="Vector" fill="none" fill-rule="evenodd" stroke="#232932" stroke-width="1" />
  </g>
</svg>
